<mxfile host="app.diagrams.net" modified="2024-01-11T01:33:03.113Z" agent="Mozilla/5.0 (Windows NT 10.0; Win64; x64) AppleWebKit/537.36 (KHTML, like Gecko) Chrome/120.0.0.0 Safari/537.36" etag="c2ECJ7ddBLuuUBrp4rXT" version="22.1.17" type="device">
  <diagram id="C5RBs43oDa-KdzZeNtuy" name="Page-1">
    <mxGraphModel dx="1434" dy="746" grid="1" gridSize="10" guides="1" tooltips="1" connect="1" arrows="1" fold="1" page="1" pageScale="1" pageWidth="827" pageHeight="1169" math="0" shadow="0">
      <root>
        <mxCell id="WIyWlLk6GJQsqaUBKTNV-0" />
        <mxCell id="WIyWlLk6GJQsqaUBKTNV-1" parent="WIyWlLk6GJQsqaUBKTNV-0" />
        <mxCell id="dwi5_WPboE5HpAbzdZtA-11" value="I(t)" style="edgeStyle=orthogonalEdgeStyle;rounded=0;orthogonalLoop=1;jettySize=auto;html=1;exitX=0;exitY=0.5;exitDx=0;exitDy=0;startArrow=classic;startFill=1;endArrow=none;endFill=0;fontSize=12;" edge="1" parent="WIyWlLk6GJQsqaUBKTNV-1" source="mkqup-HLXpr0y_vvKodh-22">
          <mxGeometry x="1" y="20" relative="1" as="geometry">
            <mxPoint x="160" y="100" as="targetPoint" />
            <mxPoint x="-19" y="-20" as="offset" />
          </mxGeometry>
        </mxCell>
        <mxCell id="mkqup-HLXpr0y_vvKodh-22" value="" style="shape=sumEllipse;perimeter=ellipsePerimeter;whiteSpace=wrap;html=1;backgroundOutline=1;" parent="WIyWlLk6GJQsqaUBKTNV-1" vertex="1">
          <mxGeometry x="280" y="80" width="40" height="40" as="geometry" />
        </mxCell>
        <mxCell id="dwi5_WPboE5HpAbzdZtA-12" value="Q(t)" style="edgeStyle=orthogonalEdgeStyle;rounded=0;orthogonalLoop=1;jettySize=auto;html=1;exitX=0;exitY=0.5;exitDx=0;exitDy=0;startArrow=classic;startFill=1;endArrow=none;endFill=0;fontSize=12;" edge="1" parent="WIyWlLk6GJQsqaUBKTNV-1" source="mkqup-HLXpr0y_vvKodh-23">
          <mxGeometry x="1" y="20" relative="1" as="geometry">
            <mxPoint x="160" y="260" as="targetPoint" />
            <mxPoint x="-19" y="-20" as="offset" />
          </mxGeometry>
        </mxCell>
        <mxCell id="mkqup-HLXpr0y_vvKodh-23" value="" style="shape=sumEllipse;perimeter=ellipsePerimeter;whiteSpace=wrap;html=1;backgroundOutline=1;" parent="WIyWlLk6GJQsqaUBKTNV-1" vertex="1">
          <mxGeometry x="280" y="240" width="40" height="40" as="geometry" />
        </mxCell>
        <mxCell id="dwi5_WPboE5HpAbzdZtA-2" style="edgeStyle=orthogonalEdgeStyle;rounded=0;orthogonalLoop=1;jettySize=auto;html=1;exitX=0.5;exitY=0;exitDx=0;exitDy=0;entryX=0.5;entryY=1;entryDx=0;entryDy=0;" edge="1" parent="WIyWlLk6GJQsqaUBKTNV-1" source="I0_e5Kw56V2snw0TNGQ5-0" target="mkqup-HLXpr0y_vvKodh-22">
          <mxGeometry relative="1" as="geometry" />
        </mxCell>
        <mxCell id="I0_e5Kw56V2snw0TNGQ5-0" value="0°" style="rounded=0;whiteSpace=wrap;html=1;" parent="WIyWlLk6GJQsqaUBKTNV-1" vertex="1">
          <mxGeometry x="280" y="140" width="40" height="20" as="geometry" />
        </mxCell>
        <mxCell id="dwi5_WPboE5HpAbzdZtA-3" style="edgeStyle=orthogonalEdgeStyle;rounded=0;orthogonalLoop=1;jettySize=auto;html=1;exitX=0.5;exitY=1;exitDx=0;exitDy=0;entryX=0.5;entryY=0;entryDx=0;entryDy=0;" edge="1" parent="WIyWlLk6GJQsqaUBKTNV-1" source="I0_e5Kw56V2snw0TNGQ5-4" target="mkqup-HLXpr0y_vvKodh-23">
          <mxGeometry relative="1" as="geometry" />
        </mxCell>
        <mxCell id="I0_e5Kw56V2snw0TNGQ5-4" value="90°" style="rounded=0;whiteSpace=wrap;html=1;" parent="WIyWlLk6GJQsqaUBKTNV-1" vertex="1">
          <mxGeometry x="280" y="200" width="40" height="20" as="geometry" />
        </mxCell>
        <mxCell id="dwi5_WPboE5HpAbzdZtA-0" style="edgeStyle=orthogonalEdgeStyle;rounded=0;orthogonalLoop=1;jettySize=auto;html=1;exitX=1;exitY=0.5;exitDx=0;exitDy=0;exitPerimeter=0;entryX=0.5;entryY=1;entryDx=0;entryDy=0;" edge="1" parent="WIyWlLk6GJQsqaUBKTNV-1" source="c5F38aWVn0C0qRdQnxwD-1" target="I0_e5Kw56V2snw0TNGQ5-0">
          <mxGeometry relative="1" as="geometry" />
        </mxCell>
        <mxCell id="dwi5_WPboE5HpAbzdZtA-1" style="edgeStyle=orthogonalEdgeStyle;rounded=0;orthogonalLoop=1;jettySize=auto;html=1;exitX=1;exitY=0.5;exitDx=0;exitDy=0;exitPerimeter=0;entryX=0.5;entryY=0;entryDx=0;entryDy=0;" edge="1" parent="WIyWlLk6GJQsqaUBKTNV-1" source="c5F38aWVn0C0qRdQnxwD-1" target="I0_e5Kw56V2snw0TNGQ5-4">
          <mxGeometry relative="1" as="geometry" />
        </mxCell>
        <mxCell id="c5F38aWVn0C0qRdQnxwD-1" value="LO" style="pointerEvents=1;verticalLabelPosition=middle;shadow=0;dashed=0;align=right;html=1;verticalAlign=middle;shape=mxgraph.electrical.signal_sources.source;aspect=fixed;points=[[0.5,0,0],[1,0.5,0],[0.5,1,0],[0,0.5,0]];elSignalType=ac;labelPosition=left;" parent="WIyWlLk6GJQsqaUBKTNV-1" vertex="1">
          <mxGeometry x="200" y="160" width="40" height="40" as="geometry" />
        </mxCell>
        <mxCell id="dwi5_WPboE5HpAbzdZtA-13" value="y(t)" style="edgeStyle=orthogonalEdgeStyle;rounded=0;orthogonalLoop=1;jettySize=auto;html=1;exitX=1;exitY=0.5;exitDx=0;exitDy=0;exitPerimeter=0;fontSize=12;" edge="1" parent="WIyWlLk6GJQsqaUBKTNV-1" source="dwi5_WPboE5HpAbzdZtA-5">
          <mxGeometry x="1" y="-20" relative="1" as="geometry">
            <mxPoint x="480" y="180" as="targetPoint" />
            <mxPoint x="19" y="-20" as="offset" />
          </mxGeometry>
        </mxCell>
        <mxCell id="dwi5_WPboE5HpAbzdZtA-5" value="" style="verticalLabelPosition=bottom;shadow=0;dashed=0;align=center;html=1;verticalAlign=top;shape=mxgraph.electrical.abstract.sum;" vertex="1" parent="WIyWlLk6GJQsqaUBKTNV-1">
          <mxGeometry x="400" y="160" width="40" height="40" as="geometry" />
        </mxCell>
        <mxCell id="dwi5_WPboE5HpAbzdZtA-7" style="edgeStyle=orthogonalEdgeStyle;rounded=0;orthogonalLoop=1;jettySize=auto;html=1;exitX=1;exitY=0.5;exitDx=0;exitDy=0;entryX=0.5;entryY=0;entryDx=0;entryDy=0;entryPerimeter=0;" edge="1" parent="WIyWlLk6GJQsqaUBKTNV-1" source="mkqup-HLXpr0y_vvKodh-22" target="dwi5_WPboE5HpAbzdZtA-5">
          <mxGeometry relative="1" as="geometry" />
        </mxCell>
        <mxCell id="dwi5_WPboE5HpAbzdZtA-8" style="edgeStyle=orthogonalEdgeStyle;rounded=0;orthogonalLoop=1;jettySize=auto;html=1;exitX=1;exitY=0.5;exitDx=0;exitDy=0;entryX=0.5;entryY=1;entryDx=0;entryDy=0;entryPerimeter=0;" edge="1" parent="WIyWlLk6GJQsqaUBKTNV-1" source="mkqup-HLXpr0y_vvKodh-23" target="dwi5_WPboE5HpAbzdZtA-5">
          <mxGeometry relative="1" as="geometry" />
        </mxCell>
        <mxCell id="dwi5_WPboE5HpAbzdZtA-9" value="cos(2πf&lt;sub&gt;c&lt;/sub&gt;t)" style="text;strokeColor=none;align=center;fillColor=none;html=1;verticalAlign=middle;whiteSpace=wrap;rounded=0;" vertex="1" parent="WIyWlLk6GJQsqaUBKTNV-1">
          <mxGeometry x="310" y="120" width="60" height="30" as="geometry" />
        </mxCell>
        <mxCell id="dwi5_WPboE5HpAbzdZtA-10" value="sin(2πf&lt;sub&gt;c&lt;/sub&gt;t)" style="text;strokeColor=none;align=center;fillColor=none;html=1;verticalAlign=middle;whiteSpace=wrap;rounded=0;" vertex="1" parent="WIyWlLk6GJQsqaUBKTNV-1">
          <mxGeometry x="310" y="220" width="60" height="30" as="geometry" />
        </mxCell>
      </root>
    </mxGraphModel>
  </diagram>
</mxfile>
